<svg width="34" height="34" viewBox="0 0 34 34" fill="none" xmlns="http://www.w3.org/2000/svg">
  <path d="M22.718.864c-3.361-.273-6.68.908-9.044 3.317a11.54 11.54 0 00-3.206 6.28 11.393 11.393 0 00-6.28 3.206A11.498 11.498 0 00.87 20.801c-.273 3.046.682 6 2.636 8.317 1.953 2.317 4.726 3.772 7.772 4 3.36.272 6.678-.909 9.043-3.318a11.396 11.396 0 003.206-6.28 11.394 11.394 0 006.28-3.206 11.498 11.498 0 003.317-7.133c.59-6.23-4.092-11.772-10.407-12.317zm-12.37 11.035c-.081 2.829.83 5.562 2.69 7.777 1.954 2.317 4.726 3.772 7.772 4 .47.04.907.045 1.367.016a10.001 10.001 0 01-10.69 8.047 10.087 10.087 0 01-9.194-10.863 10.01 10.01 0 012.903-6.245 9.88 9.88 0 015.153-2.732zm10.58 10.354c-5.448-.436-9.514-5.146-9.202-10.58a9.497 9.497 0 011.43.01c5.45.48 9.514 5.192 9.203 10.582a9.504 9.504 0 01-1.431-.012zm7.963-2.904l-.002.001a9.88 9.88 0 01-5.152 2.732c.199-6.041-4.354-11.282-10.461-11.777a9.283 9.283 0 00-1.37-.016 9.876 9.876 0 012.732-5.145 10 10 0 017.96-2.903c5.544.485 9.677 5.324 9.194 10.864-.22 2.465-1.277 4.663-2.901 6.244z" />
</svg>
